<?xml version="1.0" encoding="UTF-8"?>
<svg version="1.1" xmlns="http://www.w3.org/2000/svg" width="1024" height="1024">
<path d="M0 0 C337.92 0 675.84 0 1024 0 C1024 337.92 1024 675.84 1024 1024 C686.08 1024 348.16 1024 0 1024 C0 686.08 0 348.16 0 0 Z " fill="#FDF8EF" transform="translate(0,0)"/>
<path d="M0 0 C0.33 0.33 0.66 0.66 1 1 C0.77907046 11.82554731 -8.66203165 18.95134918 -15.875 26.0625 C-16.73480469 26.92166016 -17.59460938 27.78082031 -18.48046875 28.66601562 C-22.94637808 33.10142936 -27.48999584 37.37503382 -32.26220703 41.47827148 C-34.62192349 43.54459807 -36.81255786 45.7534378 -39 48 C-41.87557659 50.91053801 -44.75874094 53.72424022 -47.875 56.375 C-51.43286227 59.41430745 -54.71441691 62.6736402 -58 66 C-61.82987375 69.87728785 -65.72051309 73.56243613 -69.875 77.09375 C-73.24777226 80.11932511 -76.39059155 83.37061751 -79.57373047 86.59326172 C-82.92582646 89.97080861 -86.38214556 93.14248896 -90.0078125 96.2265625 C-93.26140738 99.1228999 -96.27475396 102.25515272 -99.3125 105.375 C-101.39183207 107.40597551 -103.4847234 109.29877388 -105.6875 111.1875 C-110.71047243 115.54137104 -115.33747291 120.26682856 -120 125 C-121.70581018 126.73165579 -123.41410866 128.46086426 -125.125 130.1875 C-125.87007812 130.94417969 -126.61515625 131.70085937 -127.3828125 132.48046875 C-129.48917144 134.50823221 -131.62480192 136.42678323 -133.8359375 138.3359375 C-137.90449866 141.86871127 -141.71612893 145.60406907 -145.5 149.4375 C-146.5199707 150.46315063 -146.5199707 150.46315063 -147.56054688 151.50952148 C-149.70950926 153.67057055 -151.85517279 155.83484726 -154 158 C-156.83033837 160.85716017 -159.66412673 163.71083454 -162.5 166.5625 C-163.13357422 167.20437256 -163.76714844 167.84624512 -164.41992188 168.50756836 C-168.20900651 172.31702976 -172.1256025 175.90590217 -176.19213867 179.41699219 C-178.4421229 181.38713367 -180.55925914 183.46216168 -182.65625 185.59375 C-183.45160156 186.39683594 -184.24695313 187.19992187 -185.06640625 188.02734375 C-185.86949219 188.84332031 -186.67257812 189.65929687 -187.5 190.5 C-192.5696396 195.65101423 -197.66161989 200.66079733 -203.14648438 205.36914062 C-206.07105667 207.94239443 -208.7789034 210.71508506 -211.5 213.5 C-214.8877966 216.93037996 -218.25222089 220.32284475 -221.9375 223.4375 C-226.4658356 227.27360595 -230.57788085 231.52581436 -234.72631836 235.76342773 C-237.69091116 238.77200936 -240.70370497 241.65086465 -243.90625 244.40625 C-248.32772004 248.22285613 -252.40923229 252.33471922 -256.5 256.5 C-261.20336798 261.28903952 -265.96017723 265.89334324 -271.04882812 270.27148438 C-274.35052607 273.19641198 -277.41308646 276.35184776 -280.5 279.5 C-284.84231819 283.88915859 -289.19070501 288.15199156 -293.9140625 292.1328125 C-297.50165761 295.34418041 -300.83435516 298.81542737 -304.21875 302.23828125 C-307.10476832 305.14443458 -310.00477144 307.96702752 -313.125 310.625 C-314.02992188 311.41777344 -314.02992188 311.41777344 -314.953125 312.2265625 C-316.56543034 313.62348354 -318.20729622 314.98628844 -319.859375 316.3359375 C-325.47404611 321.17654716 -328.57083369 324.90809636 -329.375 332.625 C-329.40335938 333.81351563 -329.43171875 335.00203125 -329.4609375 336.2265625 C-330.83742776 345.86199429 -337.71099758 352.27162148 -344.39453125 358.8203125 C-345.30071701 359.72321014 -346.20690277 360.62610779 -347.14054871 361.55636597 C-349.04841599 363.45664484 -350.96249517 365.35032902 -352.88208008 367.23876953 C-355.32117338 369.63832096 -357.74940853 372.04848317 -360.17364979 374.46302986 C-362.51464229 376.79396434 -364.86066806 379.11978329 -367.20703125 381.4453125 C-368.06875443 382.29964874 -368.9304776 383.15398499 -369.8183136 384.03421021 C-374.17451791 388.32256966 -378.60159002 392.46146773 -383.23246765 396.45114136 C-385.70057169 398.6138991 -388.00878818 400.91404338 -390.3125 403.25 C-390.99953003 403.94270996 -390.99953003 403.94270996 -391.70043945 404.64941406 C-393.13616175 406.09712722 -394.56852432 407.54808857 -396 409 C-401.49833486 414.5768291 -406.99392784 420.07773614 -412.94921875 425.171875 C-417.32791798 429.0751726 -421.38343597 433.32437479 -425.5 437.5 C-430.8885238 442.96583404 -436.27174376 448.31654968 -442.10546875 453.30615234 C-444.81689328 455.73036154 -447.28231568 458.36426604 -449.78393555 461.00170898 C-458.21964435 469.84385701 -466.38303153 477.16691671 -479.140625 478.16796875 C-490.98287398 478.2776192 -498.53853728 474.43433716 -508.1875 467.8125 C-517.07841942 458.92158058 -521.23403778 448.9214913 -521.4375 436.5625 C-521.36007706 426.64268601 -519.00020957 419.32474224 -512.109375 411.9921875 C-508.83279517 408.89763989 -505.35005976 406.08947455 -501.82421875 403.28515625 C-499.12864274 401.10408853 -496.55875624 398.83908559 -494 396.5 C-490.68010514 393.47717579 -487.30235888 390.57487839 -483.8125 387.75 C-477.37288007 382.53481485 -471.14544597 377.08668248 -464.89648438 371.64648438 C-461.92144811 369.06362591 -458.9305594 366.49943086 -455.9375 363.9375 C-455.07741333 363.20116333 -455.07741333 363.20116333 -454.19995117 362.44995117 C-453.04469482 361.46114797 -451.88934024 360.47245951 -450.73388672 359.48388672 C-448.40529839 357.49104529 -446.07829738 355.49635582 -443.75146484 353.50146484 C-442.58660944 352.50287817 -441.42157121 351.50450472 -440.25634766 350.50634766 C-437.29911478 347.97287723 -434.34452942 345.43642376 -431.39453125 342.89453125 C-426.06164678 338.30393447 -420.71814055 333.74238602 -415.25 329.3125 C-411.7411601 326.46541499 -408.34133363 323.54187448 -405 320.5 C-400.71386307 316.59981853 -396.30320888 312.89795326 -391.78515625 309.26953125 C-389.90878701 307.74054033 -388.06239092 306.17410604 -386.24609375 304.57421875 C-380.32946027 299.43188154 -374.81696603 295.50540715 -367 294 C-365.22598143 294.12840016 -363.4543792 294.29563183 -361.6875 294.5 C-355.92782507 294.75470745 -353.09591001 292.22507139 -349 288.5625 C-347.20021336 286.90763818 -345.41993768 285.2355538 -343.65185547 283.546875 C-341.38659402 281.42557784 -338.9893355 279.49531401 -336.5625 277.5625 C-330.21397761 272.40548914 -324.06906784 267.0205564 -317.90087891 261.65087891 C-309.95633072 254.75118267 -301.93994734 247.93468727 -293.8984375 241.1484375 C-289.8709675 237.74659391 -285.87090781 234.31382005 -281.875 230.875 C-277.8137519 227.38180518 -273.72481221 223.93551449 -269.5625 220.5625 C-264.46058244 216.42235776 -259.50845082 212.12454617 -254.55810547 207.8059082 C-250.81982653 204.55268026 -247.04073621 201.36746975 -243.1875 198.25 C-239.69764112 195.42512161 -236.31989486 192.52282421 -233 189.5 C-228.77583145 185.65441259 -224.41046927 182.03269029 -219.97265625 178.4375 C-214.83990049 174.22877517 -209.82654106 169.88093473 -204.79833984 165.54833984 C-201.86997841 163.02707074 -198.93473555 160.51384351 -196 158 C-192.48703601 154.98972957 -188.97472375 151.97870979 -185.46484375 148.96484375 C-177.14101656 141.81944861 -168.77801242 134.7219131 -160.39550781 127.64550781 C-158.78415516 126.28491886 -157.17319871 124.92386304 -155.5625 123.5625 C-154.76404663 122.88779663 -154.76404663 122.88779663 -153.94946289 122.19946289 C-150.50789824 119.28729019 -147.08318737 116.35623032 -143.66577148 113.41577148 C-138.11757088 108.6421254 -132.51742369 103.95110371 -126.8359375 99.3359375 C-122.34735376 95.63872941 -117.95085124 91.83565815 -113.54296875 88.04296875 C-108.59129613 83.78379992 -103.59933683 79.57247138 -98.60888672 75.35888672 C-95.90427711 73.07453814 -93.20227873 70.78710492 -90.5 68.5 C-89.41667901 67.58331874 -88.33334568 66.66665207 -87.25 65.75 C-86.71375 65.29625 -86.1775 64.8425 -85.625 64.375 C-84 63 -82.375 61.625 -80.75 60.25 C-80.21358887 59.79608887 -79.67717773 59.34217773 -79.12451172 58.87451172 C-78.04290479 57.95935587 -76.96119931 57.0443165 -75.87939453 56.12939453 C-73.14382061 53.81556522 -70.41007526 51.49963529 -67.6796875 49.1796875 C-62.6747702 44.93034079 -57.65816375 40.70319309 -52.5625 36.5625 C-48.3160743 33.10725696 -44.14707641 29.57297796 -40 26 C-34.97413424 21.67064074 -29.89704476 17.41808077 -24.7421875 13.2421875 C-22.73064844 11.59742479 -20.73845953 9.93896418 -18.7578125 8.2578125 C-18.21463379 7.79842285 -17.67145508 7.3390332 -17.11181641 6.86572266 C-15.58236492 5.56978936 -14.05669716 4.26939442 -12.53125 2.96875 C-8.40375799 -0.24152156 -5.1029892 -0.1889996 0 0 Z " fill="#1A4566" transform="translate(664,354)"/>
<path d="M0 0 C1.83014648 -0.01160156 1.83014648 -0.01160156 3.69726562 -0.0234375 C18.02612559 0.00703323 37.33031102 1.04143416 48.5625 11.25 C51.88312043 15.58744956 52.01277028 19.59206685 52.01416016 24.8605957 C52.02584229 25.71654327 52.03752441 26.57249084 52.04956055 27.45437622 C52.08309826 30.27829245 52.0938786 33.1016835 52.1015625 35.92578125 C52.11374727 37.89487389 52.12623341 39.86396468 52.13900757 41.83305359 C52.16147272 45.95962682 52.17103647 50.08601554 52.17333984 54.21264648 C52.17862019 59.48892837 52.22993923 64.76366623 52.29285622 70.03953266 C52.33381058 74.10690797 52.34298271 78.17391309 52.34345627 82.24147606 C52.34882788 84.18590007 52.36563775 86.13032864 52.39430618 88.07454872 C52.62546939 105.17839928 52.62546939 105.17839928 48.1640625 110.39404297 C46.30175781 112.03292847 46.30175781 112.03292847 44.5625 113.25 C43.76585937 113.83394531 42.96921875 114.41789062 42.1484375 115.01953125 C21.93369114 124.55546284 -8.82860336 126.19362089 -30.35546875 119.453125 C-37.3696104 116.71503168 -43.5940437 114.18713998 -48.4375 108.25 C-49.70301451 104.45345647 -49.60124729 100.88310431 -49.61450195 96.92651367 C-49.62435875 95.65284187 -49.62435875 95.65284187 -49.63441467 94.35343933 C-49.65413587 91.54161491 -49.66580721 88.72984385 -49.67578125 85.91796875 C-49.67985678 84.95734339 -49.6839323 83.99671803 -49.68813133 83.0069828 C-49.70898633 77.9231958 -49.72329093 72.83943575 -49.73266602 67.75561523 C-49.74373357 62.50644488 -49.77813917 57.25769806 -49.81783772 52.00867748 C-49.84398771 47.97059849 -49.85235638 43.93262071 -49.85594749 39.89446449 C-49.86081706 37.95958913 -49.87244158 36.02471839 -49.89098549 34.08992577 C-49.91534415 31.38016586 -49.91441806 28.67150589 -49.9074707 25.96166992 C-49.92028076 25.16508972 -49.93309082 24.36850952 -49.94628906 23.54779053 C-49.89757863 18.32616588 -48.83998818 15.42362665 -45.4375 11.25 C-33.34253137 0.63659768 -15.17496277 -0.09589234 0 0 Z " fill="#22A9BB" transform="translate(748.4375,311.75)"/>
<path d="M0 0 C1.74336626 -0.03228106 3.48690744 -0.05519392 5.23046875 -0.07421875 C6.20137451 -0.08799561 7.17228027 -0.10177246 8.17260742 -0.1159668 C14.06387429 0.1256662 19.23620426 2.37657963 23.62109375 6.3671875 C31.77278491 16.01989827 32.87899493 28.90008547 32 41 C30.65805483 50.82345803 28.5533152 59.07051604 21.0625 65.875 C14.33509091 70.54299814 7.94841322 70.26910114 0.0390625 70.1953125 C-1.10664215 70.1924826 -2.2523468 70.18965271 -3.43276978 70.18673706 C-7.08028755 70.17557135 -10.72755685 70.15047299 -14.375 70.125 C-16.85286103 70.11496555 -19.33072592 70.10584051 -21.80859375 70.09765625 C-27.87248014 70.0756438 -33.93622231 70.04220194 -40 70 C-39.67 71.65 -39.34 73.3 -39 75 C-27.78 75.33 -16.56 75.66 -5 76 C-5 94.38461538 -5 94.38461538 -11.4375 101.8125 C-22.20423953 109.46884811 -37.83309246 109.65241627 -50.42895508 107.60522461 C-58.92519265 105.83132359 -66.14266475 102.76766893 -71.84375 96.0390625 C-75.81673241 89.03265433 -75.372375 81.13617102 -75.37060547 73.34936523 C-75.3749689 71.20279963 -75.41132868 69.05831116 -75.44921875 66.91210938 C-75.51364423 59.05595697 -75.1226659 51.94300621 -71 45 C-67.1142298 41.1142298 -63.18801309 38.76051394 -57.6496582 38.72875977 C-56.79809647 38.71857315 -55.94653473 38.70838654 -55.06916809 38.69789124 C-53.6988166 38.69468117 -53.6988166 38.69468117 -52.30078125 38.69140625 C-50.34960655 38.66623401 -48.39843474 38.64083617 -46.44726562 38.61523438 C-43.38420446 38.58658017 -40.32119393 38.56255351 -37.25805664 38.54370117 C-34.29285922 38.52190001 -31.32826617 38.4824382 -28.36328125 38.44140625 C-27.45983475 38.44129044 -26.55638824 38.44117462 -25.62556458 38.4410553 C-18.40818557 38.33005738 -11.9141095 37.28060744 -6.125 32.75 C-0.79566865 25.85321825 -0.49653061 19.53316604 -0.3125 11.0625 C-0.27833984 9.99708984 -0.24417969 8.93167969 -0.20898438 7.83398438 C-0.12701774 5.22276154 -0.05770113 2.61185279 0 0 Z " fill="#F1BD2B" transform="translate(681,217)"/>
<path d="M0 0 C4.23897973 3.68571558 7.23985553 8.38386476 7.65039062 14.05493164 C7.66957507 15.57557945 7.66136617 17.09676514 7.62890625 18.6171875 C7.62894653 19.43271591 7.62898682 20.24824432 7.62902832 21.08848572 C7.62370204 22.80036186 7.60624417 24.5122398 7.57714844 26.22387695 C7.53520416 28.82905547 7.53609613 31.43164899 7.54296875 34.03710938 C7.53247674 35.70965319 7.51953857 37.38218383 7.50390625 39.0546875 C7.50360413 40.20965477 7.50360413 40.20965477 7.5032959 41.38795471 C7.37978181 47.0889505 6.3985779 52.08737844 2.5 56.51171875 C-1.32900415 59.3516451 -3.42655632 60.88982412 -8.1640625 60.91137695 C-9.46682129 60.92192863 -9.46682129 60.92192863 -10.79589844 60.93269348 C-11.73852539 60.93685776 -12.68115234 60.94102203 -13.65234375 60.9453125 C-15.65105197 60.96853042 -17.6497499 60.99264853 -19.6484375 61.01757812 C-22.79710576 61.05254159 -25.94540049 61.08194782 -29.09423828 61.09545898 C-32.13490308 61.11105829 -35.1744729 61.15136486 -38.21484375 61.1953125 C-39.60449341 61.19244987 -39.60449341 61.19244987 -41.0222168 61.18952942 C-47.99343172 61.31816194 -55.1003146 62.56039362 -60.62207031 67.14570618 C-66.25298944 73.43102769 -66.30473608 80.60616136 -66.52734375 88.58203125 C-66.58699451 90.4845097 -66.65057586 92.38687041 -66.71875 94.2890625 C-66.74267822 95.12542236 -66.76660645 95.96178223 -66.79125977 96.82348633 C-66.96484375 98.76953125 -66.96484375 98.76953125 -67.96484375 99.76953125 C-75.90471258 100.42669814 -83.42225088 100.81762321 -89.96484375 95.76953125 C-96.17451804 89.73234791 -99.02372857 80.78139716 -99.203125 72.296875 C-99.23368789 70.10033372 -99.25819787 67.90370171 -99.27734375 65.70703125 C-99.30634766 64.62486328 -99.33535156 63.54269531 -99.36523438 62.42773438 C-99.43508808 53.47033948 -97.87894145 45.16806439 -92.33984375 37.89453125 C-86.07173984 31.5644783 -78.81197326 29.21915245 -70.05612183 29.05058289 C-68.99217194 29.05451553 -67.92822205 29.05844818 -66.83203125 29.0625 C-65.71418243 29.04737869 -64.59633362 29.03225739 -63.4446106 29.01667786 C-59.90947933 28.97403579 -56.37520583 28.96498509 -52.83984375 28.95703125 C-50.42836298 28.93386885 -48.01690234 28.90849993 -45.60546875 28.88085938 C-39.72525207 28.8182391 -33.84536739 28.7831189 -27.96484375 28.76953125 C-28.45984375 26.78953125 -28.45984375 26.78953125 -28.96484375 24.76953125 C-40.18484375 24.43953125 -51.40484375 24.10953125 -62.96484375 23.76953125 C-62.96484375 7.87676986 -62.96484375 7.87676986 -56.5078125 1.28125 C-42.26197367 -11.46107022 -15.80541864 -8.13111132 0 0 Z " fill="#2A6C99" transform="translate(668.96484375,189.23046875)"/>
<path d="M0 0 C1.83014648 -0.01160156 1.83014648 -0.01160156 3.69726562 -0.0234375 C18.02612559 0.00703323 37.33031102 1.04143416 48.5625 11.25 C51.89223024 15.58768165 51.97448699 19.536857 51.90307617 24.80395508 C51.90373329 26.07789124 51.90373329 26.07789124 51.90440369 27.37756348 C51.90231941 30.17512272 51.87900546 32.97207714 51.85546875 35.76953125 C51.84987151 37.71294324 51.84560202 39.65635948 51.84260559 41.59977722 C51.83116691 46.70771022 51.80170802 51.81538614 51.76849365 56.92321777 C51.73777178 62.1382296 51.72409572 67.35328308 51.70898438 72.56835938 C51.67683748 82.79568568 51.62565283 93.02282144 51.5625 103.25 C51.2325 103.25 50.9025 103.25 50.5625 103.25 C50.2325 80.15 49.9025 57.05 49.5625 33.25 C48.9025 32.92 48.2425 32.59 47.5625 32.25 C48.2225 31.59 48.8825 30.93 49.5625 30.25 C49.96014263 28.26178687 50.30025349 26.26055661 50.5625 24.25 C50.02625 24.69730469 49.49 25.14460938 48.9375 25.60546875 C34.95602802 36.39051868 16.64347329 38.6498372 -0.5625 38.625 C-1.7373999 38.62338867 -2.9122998 38.62177734 -4.12280273 38.62011719 C-16.96733139 38.44085442 -28.96884918 36.35949144 -40.6875 30.88671875 C-41.265 30.67660156 -41.8425 30.46648437 -42.4375 30.25 C-43.0975 30.58 -43.7575 30.91 -44.4375 31.25 C-43.7775 32.24 -43.1175 33.23 -42.4375 34.25 C-44.4375 33.25 -46.4375 32.25 -48.4375 31.25 C-48.1075 56.33 -47.7775 81.41 -47.4375 107.25 C-50.00158342 104.68591658 -49.69016794 102.97983699 -49.73077393 99.48321533 C-49.72941437 98.27384308 -49.72941437 98.27384308 -49.72802734 97.04003906 C-49.73474457 96.19107056 -49.74146179 95.34210205 -49.74838257 94.46740723 C-49.76743868 91.65008752 -49.77129101 88.83300521 -49.7734375 86.015625 C-49.77986171 84.05987448 -49.78658978 82.10412494 -49.79360962 80.14837646 C-49.80560254 76.04257989 -49.80928853 71.93686755 -49.80810547 67.83105469 C-49.80790252 62.5739762 -49.83517036 57.3174398 -49.86964989 52.06048965 C-49.89191083 48.01810231 -49.8959432 43.97584538 -49.89488602 39.93340302 C-49.89724451 37.99574674 -49.90608199 36.058087 -49.92155075 34.12049103 C-49.94118806 31.40579091 -49.93538099 28.69225874 -49.92333984 25.97753906 C-49.93457886 25.17938782 -49.94581787 24.38123657 -49.95739746 23.55889893 C-49.89864429 18.3355802 -48.84087442 15.42508169 -45.4375 11.25 C-33.34253137 0.63659768 -15.17496277 -0.09589234 0 0 Z " fill="#20A8BA" transform="translate(748.4375,311.75)"/>
<path d="M0 0 C0.91652344 -0.00064453 1.83304688 -0.00128906 2.77734375 -0.00195312 C3.72738281 0.01802734 4.67742188 0.03800781 5.65625 0.05859375 C6.60628906 0.05150391 7.55632813 0.04441406 8.53515625 0.03710938 C15.31445637 0.0990861 15.31445637 0.0990861 18.26879883 1.49241638 C21.17654373 4.57921553 20.71370143 7.93706192 20.67382812 11.95898438 C20.6808374 12.82267136 20.68784668 13.68635834 20.69506836 14.57621765 C20.71269431 17.43525203 20.70100944 20.29329906 20.6875 23.15234375 C20.69019359 25.1362731 20.6940749 27.12020116 20.69909668 29.10412598 C20.70499796 33.26371825 20.69640845 37.42296714 20.67773438 41.58251953 C20.65494455 46.91951071 20.66806425 52.25569735 20.69202423 57.592659 C20.70646515 61.68986087 20.70188405 65.7868714 20.69151306 69.88407898 C20.68884106 71.85210769 20.69213212 73.82015367 20.70143127 75.78816223 C20.7115688 78.53697858 20.69613543 81.28448461 20.67382812 84.03320312 C20.68192505 84.84991989 20.69002197 85.66663666 20.69836426 86.50810242 C20.61552342 92.00655237 20.61552342 92.00655237 18.27552795 94.50076294 C15.71994823 95.70100533 13.87979976 95.88370326 11.05859375 95.89453125 C10.09244141 95.89839844 9.12628906 95.90226563 8.13085938 95.90625 C7.12861328 95.89464844 6.12636719 95.88304687 5.09375 95.87109375 C4.08763672 95.88269531 3.08152344 95.89429688 2.04492188 95.90625 C1.08005859 95.90238281 0.11519531 95.89851562 -0.87890625 95.89453125 C-1.7594165 95.89114746 -2.63992676 95.88776367 -3.54711914 95.88427734 C-5.84375 95.49609375 -5.84375 95.49609375 -7.46203613 94.49403381 C-9.66209297 91.31278059 -9.26866659 87.87549979 -9.24780273 84.14086914 C-9.25466599 83.28854202 -9.26152924 82.4362149 -9.26860046 81.55805969 C-9.28692381 78.73645436 -9.28302305 75.91540214 -9.27734375 73.09375 C-9.28190301 71.13463662 -9.28720781 69.17552484 -9.29322815 67.21641541 C-9.30217021 63.10815946 -9.2997238 59.00009779 -9.28979492 54.8918457 C-9.27830589 49.62448044 -9.29851022 44.35778562 -9.32771206 39.09050846 C-9.34604996 35.04389681 -9.34578638 30.99744652 -9.34007454 26.95080376 C-9.33992102 25.00871274 -9.34599071 23.066611 -9.35836601 21.1245594 C-9.37322817 18.40951503 -9.36263435 15.69571797 -9.34545898 12.98071289 C-9.35512695 12.17694214 -9.36479492 11.37317139 -9.37475586 10.54504395 C-9.3271234 6.9530007 -9.15266477 4.90530319 -6.95729065 1.99716187 C-4.43034942 0.20249049 -3.07789782 -0.00684374 0 0 Z " fill="#236990" transform="translate(681.84375,447.50390625)"/>
<path d="M0 0 C0.83208984 -0.00064453 1.66417969 -0.00128906 2.52148438 -0.00195312 C3.37677734 0.01802734 4.23207031 0.03800781 5.11328125 0.05859375 C5.98017578 0.05150391 6.84707031 0.04441406 7.74023438 0.03710938 C12.50230733 0.08528599 12.50230733 0.08528599 14.42578125 0.49609375 C16.7084047 3.92002893 16.68246904 5.17829245 16.70043945 9.20507812 C16.71473747 10.96205017 16.71473747 10.96205017 16.72932434 12.7545166 C16.72841293 14.02017456 16.72750153 15.28583252 16.7265625 16.58984375 C16.73084763 17.88805054 16.73513275 19.18625732 16.73954773 20.52380371 C16.7470068 23.27095626 16.74672068 26.01798028 16.74145508 28.76513672 C16.73565594 32.28602915 16.7526029 35.80639629 16.77579975 39.32720184 C16.79406882 42.68560484 16.79035213 46.04389127 16.7890625 49.40234375 C16.79827225 50.66800171 16.80748199 51.93365967 16.81697083 53.2376709 C16.81074203 54.4089856 16.80451324 55.58030029 16.7980957 56.78710938 C16.79872513 57.81952759 16.79935455 58.8519458 16.80000305 59.91564941 C16.42578125 62.49609375 16.42578125 62.49609375 15.03556824 64.3286438 C12.89438174 65.88147538 11.49378865 65.88344765 8.86328125 65.89453125 C7.54457031 65.90033203 7.54457031 65.90033203 6.19921875 65.90625 C4.82636719 65.88884766 4.82636719 65.88884766 3.42578125 65.87109375 C2.05292969 65.88849609 2.05292969 65.88849609 0.65234375 65.90625 C-0.22679687 65.90238281 -1.1059375 65.89851562 -2.01171875 65.89453125 C-3.21634766 65.88945557 -3.21634766 65.88945557 -4.4453125 65.88427734 C-7.17281848 65.3869454 -7.89918247 64.69128581 -9.57421875 62.49609375 C-9.96862793 59.96034241 -9.96862793 59.96034241 -9.99414062 56.89477539 C-10.01005249 55.74670914 -10.02596436 54.59864288 -10.0423584 53.41578674 C-10.04255981 52.17513962 -10.04276123 50.93449249 -10.04296875 49.65625 C-10.05058228 48.38261093 -10.0581958 47.10897186 -10.06604004 45.79673767 C-10.07685607 43.10058482 -10.08105394 40.40530761 -10.07519531 37.70922852 C-10.06929975 34.25758118 -10.09988062 30.80734079 -10.14031219 27.35596561 C-10.17240883 24.06025316 -10.16807291 20.7645947 -10.16796875 17.46875 C-10.18436401 16.23012711 -10.20075928 14.99150421 -10.21765137 13.71534729 C-10.20834595 12.56412888 -10.19904053 11.41291046 -10.18945312 10.22680664 C-10.19150757 9.21437393 -10.19356201 8.20194122 -10.19567871 7.15882874 C-9.00988437 2.07812156 -4.9708529 -0.01216661 0 0 Z " fill="#226890" transform="translate(650.57421875,477.50390625)"/>
<path d="M0 0 C1.06669922 0.00322266 2.13339844 0.00644531 3.23242188 0.00976562 C4.29525391 -0.00634766 5.35808594 -0.02246094 6.453125 -0.0390625 C7.98163086 -0.0400293 7.98163086 -0.0400293 9.54101562 -0.04101562 C10.4761499 -0.04399658 11.41128418 -0.04697754 12.37475586 -0.05004883 C14.79492188 0.32226562 14.79492188 0.32226562 16.59838867 1.35473633 C18.47986495 4.44855746 18.22217593 7.65125658 18.19335938 11.16601562 C18.19622955 11.93151733 18.19909973 12.69701904 18.20205688 13.48571777 C18.20409687 15.10295349 18.1985715 16.72021393 18.18603516 18.33740234 C18.16997945 20.81338654 18.18588484 23.28773847 18.20507812 25.76367188 C18.20309568 27.33529006 18.19925198 28.90690723 18.19335938 30.47851562 C18.20246841 31.58954651 18.20246841 31.58954651 18.21176147 32.72302246 C18.17209348 35.62085627 18.12555791 37.79322169 16.56665039 40.28759766 C14.27199696 41.62764744 12.70267298 41.70999494 10.04882812 41.72070312 C9.12908203 41.72457031 8.20933594 41.7284375 7.26171875 41.73242188 C6.30330078 41.72082031 5.34488281 41.70921875 4.35742188 41.69726562 C3.40287109 41.70886719 2.44832031 41.72046875 1.46484375 41.73242188 C0.54380859 41.72855469 -0.37722656 41.7246875 -1.32617188 41.72070312 C-2.16591553 41.71731934 -3.00565918 41.71393555 -3.87084961 41.71044922 C-6.91934593 41.20348246 -8.15928153 40.67343959 -10.20507812 38.32226562 C-10.58577091 35.49079133 -10.71910363 33.05317348 -10.66601562 30.22460938 C-10.66509918 29.43453995 -10.66418274 28.64447052 -10.66323853 27.83045959 C-10.65720081 26.16189559 -10.64144946 24.49334252 -10.61669922 22.82495117 C-10.58016297 20.26570903 -10.57568 17.70791332 -10.57617188 15.1484375 C-10.56634177 13.52798223 -10.55468523 11.9075368 -10.54101562 10.28710938 C-10.53878998 9.51938705 -10.53656433 8.75166473 -10.53427124 7.9606781 C-10.38575477 -0.31398699 -7.29414005 0.05081415 0 0 Z " fill="#22688F" transform="translate(616.205078125,501.677734375)"/>
<path d="M0 0 C3.0625 0.5 3.0625 0.5 5.5 2.625 C7.0625 5.5 7.0625 5.5 7.125 8.5 C5.79641096 12.25131022 3.94939863 13.75962435 1.0625 16.5 C0.55307861 16.98662109 0.04365723 17.47324219 -0.48120117 17.97460938 C-7.16227916 24.32852896 -13.95894951 30.42832597 -21.16015625 36.19140625 C-24.36192929 38.85279565 -27.39983425 41.65463665 -30.4375 44.5 C-35.1909112 48.95178464 -40.086014 53.12565618 -45.16796875 57.203125 C-49.32834436 60.65347882 -53.26169376 64.33108663 -57.2109375 68.01953125 C-64.33435039 74.5 -64.33435039 74.5 -67.9375 74.5 C-67.43301109 70.32715599 -66.39182229 68.51120287 -63.3125 65.6875 C-60.68214796 63.1868132 -58.16663902 60.70001007 -55.8125 57.9375 C-52.3373607 53.89645499 -48.7075053 50.01204327 -45.0625 46.125 C-40.36440547 41.11230367 -35.71303711 36.06637544 -31.1328125 30.9453125 C-26.77599438 26.09234427 -22.35325234 21.29929032 -17.9375 16.5 C-17.40592285 15.92185547 -16.8743457 15.34371094 -16.32666016 14.74804688 C-14.69780285 12.97706804 -13.06785736 11.20709789 -11.4375 9.4375 C-10.6808606 8.61511841 -10.6808606 8.61511841 -9.90893555 7.77612305 C-8.5899734 6.34625987 -7.26408021 4.92279822 -5.9375 3.5 C-5.38964844 2.89285156 -4.84179688 2.28570312 -4.27734375 1.66015625 C-2.9375 0.5 -2.9375 0.5 0 0 Z " fill="#289BB6" transform="translate(842.9375,223.5)"/>
<path d="M0 0 C4.51602503 2.29906729 6.75719937 4.50154601 9 9 C9.3984375 11.9375 9.3984375 11.9375 9.375 15 C9.38660156 16.5159375 9.38660156 16.5159375 9.3984375 18.0625 C8.74298247 22.89487437 6.33856679 25.66143321 3 29 C3 29.66 3 30.32 3 31 C5.28705831 32.14352916 6.59264762 32.10334439 9.125 32.0625 C11.043125 32.0315625 11.043125 32.0315625 13 32 C11.63016497 35.16115776 11.0109362 35.9927092 8 38 C5.25 38.5 5.25 38.5 2 38 C0.37109375 36.7265625 0.37109375 36.7265625 -1.3125 35.125 C-4.01927286 32.55565711 -5.81500794 31.5880972 -9.5 31 C-14.58862629 30.13884786 -17.62672729 27.8428476 -21 24 C-23.42925089 19.98645506 -23.6985873 15.59321151 -23 11 C-21.0827516 5.61863233 -18.01049382 2.77176254 -13 0 C-8.55702769 -1.48099077 -4.55222512 -0.91469944 0 0 Z " fill="#F7F7F1" transform="translate(758,374)"/>
<path d="M0 0 C5.67074651 1.00823055 9.15733901 5.71733466 12.9375 9.72265625 C13.70578125 10.50962891 14.4740625 11.29660156 15.265625 12.10742188 C18.7844548 15.73696315 22.20294249 19.42919928 25.50390625 23.2578125 C29.71317237 28.12853472 34.32703953 32.56644431 38.94726562 37.04296875 C39.59244141 37.6771875 40.23761719 38.31140625 40.90234375 38.96484375 C41.4862085 39.53187012 42.07007324 40.09889648 42.67163086 40.68310547 C43.9375 42.16015625 43.9375 42.16015625 43.9375 44.16015625 C44.9275 44.49015625 45.9175 44.82015625 46.9375 45.16015625 C48.41015625 46.65625 48.41015625 46.65625 50 48.59765625 C52.83806782 51.9517364 55.80674344 55.077052 58.9375 58.16015625 C62.56840844 61.74712026 65.98323617 65.42587195 69.296875 69.3046875 C70.91827158 71.13840983 72.61518235 72.8347919 74.375 74.53515625 C78.65410078 78.72672997 82.27467665 83.43178429 85.9375 88.16015625 C84.9475 88.65515625 84.9475 88.65515625 83.9375 89.16015625 C78.40653416 84.37404827 72.98075301 79.48104834 67.578125 74.55078125 C65.46950785 72.6417965 63.34284043 70.76562323 61.1875 68.91015625 C56.48203107 64.82689809 51.97033339 60.53553327 47.42675781 56.27441406 C44.30503586 53.35198408 41.18080053 50.44825671 37.9375 47.66015625 C33.99792354 44.27350281 30.2261511 40.71333886 26.4375 37.16015625 C22.03543694 33.03221825 17.61688635 28.9495286 13.04296875 25.01171875 C10.0262879 22.35883058 7.07661937 19.63503943 4.125 16.91015625 C3.56087402 16.3898584 2.99674805 15.86956055 2.41552734 15.33349609 C0.91793798 13.94767386 -0.57261017 12.55425289 -2.0625 11.16015625 C-2.67867188 10.60972656 -3.29484375 10.05929688 -3.9296875 9.4921875 C-5.0625 8.16015625 -5.0625 8.16015625 -5.375 5.09765625 C-4.93642655 0.97506578 -4.14504238 0.2167688 0 0 Z " fill="#2A95B1" transform="translate(499.0625,243.83984375)"/>
<path d="M0 0 C4.18459414 1.26273846 7.65714363 2.81774799 11.359375 5.1328125 C12.38047363 5.76654785 13.40157227 6.4002832 14.45361328 7.05322266 C15.5414209 7.73690918 16.62922852 8.4205957 17.75 9.125 C18.89398941 9.83833616 20.03836473 10.55105376 21.18310547 11.26318359 C22.96643185 12.37281096 24.74938469 13.48300349 26.53085327 14.59561157 C30.74214923 17.22476397 34.97101385 19.82355723 39.2109375 22.40625 C40.38187241 23.12087123 41.55277132 23.83555145 42.72363281 24.55029297 C44.93762309 25.9007444 47.15304621 27.24885049 49.37011719 28.59423828 C65.11620077 38.23240154 65.11620077 38.23240154 67 42 C67.38681451 45.55869346 67.46190157 47.34267853 65.375 50.3125 C62.24466964 52.5366821 60.88738714 53.22004078 57 53 C50.3269043 49.2988397 44.83798668 43.12368945 39.31030273 37.91503906 C34.83011911 33.70794137 30.18756131 29.8275345 25.390625 25.984375 C22.63836272 23.69981742 20.15670285 21.24734295 17.671875 18.6796875 C13.92013808 14.91041909 9.8100818 11.49757195 5.71484375 8.109375 C4.98394531 7.49578125 4.25304687 6.8821875 3.5 6.25 C2.8296875 5.69828125 2.159375 5.1465625 1.46875 4.578125 C0 3 0 3 0 0 Z " fill="#2996B3" transform="translate(779,459)"/>
<path d="M0 0 C3.55144142 0.60289846 3.93082198 0.91234371 6.33984375 3.96484375 C7.2161513 5.28218878 8.0812727 6.607016 8.9375 7.9375 C9.91590423 9.40892694 10.89645649 10.87892736 11.87890625 12.34765625 C12.38953613 13.11480957 12.90016602 13.88196289 13.42626953 14.67236328 C15.99206962 18.46732729 18.68056774 22.17076469 21.375 25.875 C22.18662598 26.99394653 22.18662598 26.99394653 23.01464844 28.13549805 C24.11901556 29.65750903 25.2239986 31.1790733 26.32958984 32.70019531 C28.01033456 35.01422852 29.68756493 37.33076074 31.36328125 39.6484375 C32.19085937 40.7928833 32.19085937 40.7928833 33.03515625 41.96044922 C34.12714561 43.4735515 35.21702956 44.98817572 36.3046875 46.50439453 C38.85011241 50.04969611 41.41897656 53.56722223 44.07421875 57.03125 C44.54835205 57.6612793 45.02248535 58.29130859 45.51098633 58.94042969 C46.39118568 60.10814717 47.28473309 61.26597704 48.1940918 62.41113281 C50.31869056 65.26043863 51.01759454 66.67235058 50.82421875 70.2734375 C49.53873318 74.52589686 49.53873318 74.52589686 47 76 C41.42607683 76.70779977 41.42607683 76.70779977 39 76 C34.8941107 71.64659451 32.53485984 66.43507529 29.9296875 61.1171875 C29.20798874 59.6638652 29.20798874 59.6638652 28.47171021 58.18118286 C26.93374474 55.08192071 25.40392624 51.97872993 23.875 48.875 C21.8756078 44.82913314 19.87233668 40.7852039 17.8671875 36.7421875 C17.37740417 35.75248962 16.88762085 34.76279175 16.38299561 33.74310303 C12.75926954 26.44867917 9.01090872 19.22759244 5.12716675 12.06808472 C3.0073648 8.11751688 1.26863834 4.32633826 0 0 Z " fill="#2892B0" transform="translate(734,487)"/>
<path d="M0 0 C8.51888987 -0.11594941 17.03744903 -0.20474236 25.5569334 -0.25906086 C29.51309303 -0.28513382 33.46871205 -0.32048809 37.42456055 -0.37719727 C41.24362802 -0.43160179 45.0621762 -0.46143786 48.88160133 -0.47438622 C50.33729031 -0.48361119 51.79295146 -0.50162618 53.24841881 -0.52865028 C55.29082579 -0.56505743 57.33109903 -0.56994116 59.3737793 -0.56762695 C61.11584908 -0.58428154 61.11584908 -0.58428154 62.89311218 -0.60127258 C66.96211074 0.18619623 68.44803132 1.80443504 71 5 C71.5625 8.0625 71.5625 8.0625 71 11 C68.95497648 13.64538653 67.85439495 14.88776312 64.48730469 15.33007812 C52.84479241 14.1951279 41.35105396 12.17168712 29.83691406 10.13427734 C26.21813503 9.49436529 22.59755485 8.86553592 18.9765625 8.23828125 C16.67697177 7.83657563 14.37748842 7.4342547 12.078125 7.03125 C10.99492981 6.84268433 9.91173462 6.65411865 8.79571533 6.45983887 C7.79997498 6.28295532 6.80423462 6.10607178 5.77832031 5.92382812 C4.90121399 5.76918091 4.02410767 5.61453369 3.12042236 5.4552002 C1 5 1 5 -1 4 C-0.67 2.68 -0.34 1.36 0 0 Z " fill="#34ABBD" transform="translate(833,377)"/>
<path d="M0 0 C3.5 0.5625 3.5 0.5625 5.5 2.0625 C7.73995542 7.66238855 5.07503379 14.49347417 3.30688477 19.97241211 C3.0856192 20.66447754 2.86435364 21.35654297 2.63638306 22.06958008 C1.91191156 24.32872268 1.1770921 26.58433052 0.44140625 28.83984375 C-0.06844858 30.41771946 -0.57788722 31.9957297 -1.08692932 33.5738678 C-2.1506696 36.86597473 -3.21959837 40.15633842 -4.29223633 43.44555664 C-5.66875425 47.668146 -7.03181868 51.89493907 -8.39106655 56.12311459 C-9.43821315 59.37527164 -10.4925055 62.62507675 -11.54899788 65.87420845 C-12.05481968 67.43285878 -12.55835965 68.99225148 -13.05959892 70.55238152 C-13.75828239 72.72348916 -14.46653691 74.89123417 -15.17749023 77.05834961 C-15.57862534 78.29330673 -15.97976044 79.52826385 -16.39305115 80.80064392 C-17.5 83.5625 -17.5 83.5625 -19.5 84.5625 C-18.18051686 69.36817435 -15.5299422 54.41114076 -12.81420898 39.41723633 C-12.18006367 35.91368131 -11.56096007 32.40764267 -10.94543552 28.90077496 C-10.46430924 26.17225547 -9.97386906 23.44547156 -9.48075676 20.71909523 C-9.1363348 18.80304448 -8.80092351 16.88538096 -8.4657135 14.96769714 C-8.25216721 13.80490738 -8.03862091 12.64211761 -7.81860352 11.4440918 C-7.63588394 10.42582809 -7.45316437 9.40756439 -7.26490784 8.35844421 C-5.9536371 3.5653964 -5.11300691 0.82173325 0 0 Z " fill="#2DA8BC" transform="translate(754.5,180.4375)"/>
<path d="M0 0 C2.94995117 1.12646484 2.94995117 1.12646484 6.04296875 2.7109375 C7.18999268 3.29149902 8.3370166 3.87206055 9.51879883 4.47021484 C10.74188616 5.10478305 11.96478266 5.73971917 13.1875 6.375 C14.44964093 7.01996943 15.7122592 7.66400555 16.9753418 8.30712891 C20.65906468 10.1879563 24.33043171 12.09170111 28 14 C28.96454102 14.50015625 29.92908203 15.0003125 30.92285156 15.515625 C35.59098655 17.9411733 40.24078836 20.39877004 44.88037109 22.87841797 C47.06306228 24.03336882 49.257968 25.16172701 51.45703125 26.28515625 C52.16110107 26.64883301 52.8651709 27.01250977 53.59057617 27.38720703 C54.9059033 28.06625867 56.22487641 28.73831399 57.5480957 29.40185547 C61.8872676 31.6618028 61.8872676 31.6618028 63 35 C57.79296556 34.32413928 53.11452693 32.80630787 48.18359375 31.0859375 C47.33783279 30.79533951 46.49207184 30.50474152 45.62068176 30.20533752 C42.89132138 29.26655284 40.16430235 28.32118666 37.4375 27.375 C33.72326424 26.09068314 30.0082647 24.80859011 26.29296875 23.52734375 C25.38982941 23.2154158 24.48669006 22.90348785 23.55618286 22.58210754 C18.65435988 20.89428128 13.74426733 19.2530071 8.80078125 17.69140625 C7.83148682 17.38348145 6.86219238 17.07555664 5.86352539 16.75830078 C4.18828565 16.23217691 2.50930664 15.71773138 0.82592773 15.21826172 C-3.91981824 13.71781919 -6.90132149 11.92824598 -10 8 C-10 4.8125 -10 4.8125 -9 2 C-5.47118535 -0.3525431 -4.15607415 -0.3835789 0 0 Z " fill="#2B91B0" transform="translate(525,335)"/>
<path d="M0 0 C0.5625 2.625 0.5625 2.625 0 6 C-14.00236734 19.50582949 -37.3162289 20.43601154 -55.55859375 20.21484375 C-69.80304072 19.8110128 -85.42779007 17.27853743 -96 7 C-95.67 6.34 -95.34 5.68 -95 5 C-93.824375 5.4125 -92.64875 5.825 -91.4375 6.25 C-65.60820184 14.85976605 -35.48348096 17.42111965 -9.9140625 6.08203125 C-6.69598915 4.26283468 -3.58722748 0 0 0 Z " fill="#A1DDE6" transform="translate(799,336)"/>
<path d="M0 0 C2 1.0625 2 1.0625 3 3 C3.65637173 9.12613615 3.65637173 9.12613615 1.76586914 11.64306641 C-0.37598278 13.28891363 -1.98239703 13.69099971 -4.62890625 14.2109375 C-5.56992187 14.40147705 -6.5109375 14.5920166 -7.48046875 14.78833008 C-8.49753906 14.98193115 -9.51460937 15.17553223 -10.5625 15.375 C-11.60921875 15.58342529 -12.6559375 15.79185059 -13.734375 16.0065918 C-17.15391199 16.68367024 -20.57657105 17.34290194 -24 18 C-26.45708725 18.47757654 -28.91411822 18.95544275 -31.37109375 19.43359375 C-37.57799098 20.63693323 -43.78782049 21.82425278 -50 23 C-50 21.68 -50 20.36 -50 19 C-41.36045152 14.38791021 -32.47267624 10.3181145 -23.50500488 6.38928223 C-22.2591811 5.84139803 -21.01556163 5.28847181 -19.77429199 4.73034668 C-7.19771484 -0.9104508 -7.19771484 -0.9104508 0 0 Z " fill="#29A8BC" transform="translate(872,304)"/>
<path d="M0 0 C2.5625 1.5625 2.5625 1.5625 4 3 C3.67 4.32 3.34 5.64 3 7 C-2.445 6.505 -2.445 6.505 -8 6 C-7.44692745 10.03955013 -7.44692745 10.03955013 -4.78515625 11.59765625 C-3.88667969 12.08105469 -2.98820313 12.56445312 -2.0625 13.0625 C1.33879989 14.90752167 2.81359584 15.72039377 5 19 C5.4375 22.375 5.4375 22.375 5 26 C2.8272578 28.63016161 1.05326212 30.47336894 -2 32 C-8.06353588 32.56709328 -12.72107992 32.33405479 -18 29 C-17.34 27.35 -16.68 25.7 -16 24 C-15.505 24.165 -15.01 24.33 -14.5 24.5 C-10.96555911 25.20688818 -7.60309299 25.06005155 -4 25 C-3.67 23.68 -3.34 22.36 -3 21 C-4.03060547 20.29423828 -4.03060547 20.29423828 -5.08203125 19.57421875 C-5.98308594 18.95160156 -6.88414062 18.32898438 -7.8125 17.6875 C-8.70582031 17.07261719 -9.59914063 16.45773437 -10.51953125 15.82421875 C-15.78738461 11.95006518 -15.78738461 11.95006518 -16.43359375 9.0625 C-16.4441765 3.47480936 -16.4441765 3.47480936 -14.1875 1.0625 C-9.20873734 -1.35575615 -5.31435324 -1.12234536 0 0 Z " fill="#F7F8F3" transform="translate(728,373)"/>
<path d="M0 0 C5.1181883 0.10932053 8.88633359 0.23571913 13.1875 3.1875 C15 6 15 6 14.875 9.0625 C14.58625 10.031875 14.2975 11.00125 14 12 C13.814375 12.7425 13.62875 13.485 13.4375 14.25 C13.293125 14.8275 13.14875 15.405 13 16 C13 16.66 13 17.32 13 18 C17.29 18.33 21.58 18.66 26 19 C26 19.33 26 19.66 26 20 C15.11 20 4.22 20 -7 20 C-7 8.28571429 -7 8.28571429 -4 4 C-1.8125 2.625 -1.8125 2.625 0 2 C0 1.34 0 0.68 0 0 Z " fill="#2D6D99" transform="translate(614,192)"/>
<path d="M0 0 C1.8125 1.125 1.8125 1.125 3 3 C3.625 5.6875 3.625 5.6875 3 9 C-1.25955265 14.86135421 -6.77702202 19.83163895 -12.0625 24.75 C-13.0844043 25.71873047 -13.0844043 25.71873047 -14.12695312 26.70703125 C-17.89121017 30.22901623 -21.61274014 33.28961793 -26 36 C-26.33 35.34 -26.66 34.68 -27 34 C-25.92358398 31.71264648 -25.92358398 31.71264648 -24.24609375 28.87109375 C-23.63830078 27.83533203 -23.03050781 26.79957031 -22.40429688 25.73242188 C-21.75525391 24.64509766 -21.10621094 23.55777344 -20.4375 22.4375 C-19.81552734 21.37724609 -19.19355469 20.31699219 -18.55273438 19.22460938 C-6.81069984 -0.66445852 -6.81069984 -0.66445852 0 0 Z " fill="#2A93B1" transform="translate(662,419)"/>
<path d="M0 0 C2.63290532 0.50279301 4.0876938 1.4034593 5.90234375 3.36328125 C7.42057736 7.91798207 7.68789552 12.32084664 5.96484375 16.80078125 C2.58867433 19.35848536 -0.92183524 19.89714278 -5.09765625 19.36328125 C-8.31486292 16.80264737 -9.67084085 15.32205908 -10.53515625 11.35546875 C-10.74667861 7.87857003 -10.14499491 5.45795857 -8.59765625 2.36328125 C-5.53958535 -0.08317547 -3.82109543 -0.24904719 0 0 Z " fill="#1FA6BA" transform="translate(753.09765625,379.63671875)"/>
<path d="M0 0 C1.98 0 3.96 0 6 0 C6.33 8.25 6.66 16.5 7 25 C10.63 25 14.26 25 18 25 C18 26.98 18 28.96 18 31 C14.75684218 31.96604701 11.81491334 32.13419024 8.4375 32.125 C7.48746094 32.12757813 6.53742187 32.13015625 5.55859375 32.1328125 C3 32 3 32 0 31 C0 20.77 0 10.54 0 0 Z " fill="#FAF9F3" transform="translate(772,373)"/>
<path d="M0 0 C4.875 1.875 4.875 1.875 6 3 C6.45459858 5.65463121 6.70243238 8.32189138 7 11 C7.66 10.67 8.32 10.34 9 10 C8.96519531 10.72445313 8.93039062 11.44890625 8.89453125 12.1953125 C8.69540844 19.30684132 9.05607653 23.88290456 14.125 29.25 C16.9015824 30.94009363 18.3261575 31.31573103 21.4375 31.8125 C26.19936558 32.66453949 28.15378528 34.75434902 31.00390625 38.5390625 C31.49697266 39.26222656 31.49697266 39.26222656 32 40 C29.53199953 38.84826645 27.95216435 37.95216435 26 36 C24.65404953 35.74389949 23.29727521 35.54287348 21.9375 35.375 C15.8630659 34.19166868 12.22255582 30.29243263 8 26 C6.02 28.97 6.02 28.97 4 32 C4 29 4 29 5 27 C5.13357453 23.32670036 5.1671568 20.50147041 4 17 C2.34015202 16.31653318 0.67163195 15.65411685 -1 15 C-3.41016844 13.42316102 -5.68847583 11.72231212 -8 10 C-7.67 8.68 -7.34 7.36 -7 6 C-5.54119891 6.14107747 -4.08296449 6.28802415 -2.625 6.4375 C-1.40683594 6.55931641 -1.40683594 6.55931641 -0.1640625 6.68359375 C2 7 2 7 4 8 C3.50168276 4.31245243 2.89932357 2.39509338 0 0 Z " fill="#1CA3B6" transform="translate(727,372)"/>
<path d="M0 0 C7.01972735 5.87364941 13.28682737 12.10183494 19.25390625 19.0390625 C20.91477451 20.90428815 22.64183351 22.6404106 24.4375 24.375 C28.71660078 28.56657372 32.33717665 33.27162804 36 38 C35.01 38.495 35.01 38.495 34 39 C28.47181916 34.21630197 23.04898415 29.32551157 17.6484375 24.3984375 C15.49428693 22.44762857 13.32281531 20.52606388 11.125 18.625 C5.28956578 13.55867113 -0.33709798 8.25717581 -6 3 C-1.85183538 3 -0.6232586 4.93586028 2.28125 7.6875 C4.03695369 9.3034568 4.03695369 9.3034568 7 9 C6.4946875 8.51789063 5.989375 8.03578125 5.46875 7.5390625 C4.8190625 6.90742188 4.169375 6.27578125 3.5 5.625 C2.8503125 4.99851562 2.200625 4.37203125 1.53125 3.7265625 C0 2 0 2 0 0 Z " fill="#208FAD" transform="translate(549,294)"/>
<path d="M0 0 C0.33 0 0.66 0 1 0 C2.02250405 6.69860922 2.11756273 13.2315198 2.0625 20 C2.05798828 21.06089844 2.05347656 22.12179687 2.04882812 23.21484375 C2.03713859 25.80992055 2.01920665 28.40496795 2 31 C6.95 31.33 11.9 31.66 17 32 C17 32.33 17 32.66 17 33 C12.05 33 7.1 33 2 33 C2.33 34.65 2.66 36.3 3 38 C0.03 38.495 0.03 38.495 -3 39 C-1.68 37.02 -0.36 35.04 1 33 C0.01 33.495 0.01 33.495 -1 34 C-5.05142119 34.25860135 -6.54337669 34.30441554 -10 32 C-9.0452856 29.87025249 -8.30591538 28.26686235 -6.53125 26.71875 C-4.48007489 24.41641059 -4.04784737 22.28890604 -3.3125 19.3125 C-3.06113281 18.31863281 -2.80976562 17.32476562 -2.55078125 16.30078125 C-2.36902344 15.54152344 -2.18726563 14.78226562 -2 14 C-1.67 14 -1.34 14 -1 14 C-0.67 9.38 -0.34 4.76 0 0 Z M3 34 C3.99 34.495 3.99 34.495 5 35 C4.01 35.495 4.01 35.495 3 36 C3 35.34 3 34.68 3 34 Z " fill="#16A2B6" transform="translate(770,373)"/>
<path d="M0 0 C1.875 1.0625 1.875 1.0625 3 3 C3.36528977 6.4093712 3.6140629 8.88023824 1.9375 11.9375 C-1.15493758 13.63335287 -3.55514741 13.43060657 -7 13 C-9 11.4375 -9 11.4375 -10 9 C-9.875 5.375 -9.875 5.375 -9 2 C-5.53076119 -0.31282587 -4.07794425 -0.42478586 0 0 Z " fill="#FCF8F0" transform="translate(664,301)"/>
<path d="M0 0 C0.33 0 0.66 0 1 0 C0.96519531 1.24716797 0.96519531 1.24716797 0.9296875 2.51953125 C0.91164063 3.60621094 0.89359375 4.69289062 0.875 5.8125 C0.85179687 6.89144531 0.82859375 7.97039062 0.8046875 9.08203125 C0.76976283 12.19402868 0.76976283 12.19402868 3 15 C2.88861893 21.58540583 0.02317111 28.35031146 -2 34.5625 C-2.39155273 35.77788452 -2.39155273 35.77788452 -2.79101562 37.01782227 C-4.75827616 42.87913808 -4.75827616 42.87913808 -7 44 C-6.03036847 33.78059398 -4.70402691 23.67690476 -2.9375 13.5625 C-2.7631543 12.56210693 -2.58880859 11.56171387 -2.40917969 10.53100586 C-1.13988539 3.41965618 -1.13988539 3.41965618 0 0 Z " fill="#26A0B7" transform="translate(742,221)"/>
<path d="M0 0 C2 1.625 2 1.625 3 4 C2.875 7.125 2.875 7.125 2 10 C-1.46923881 12.31282587 -2.92205575 12.42478586 -7 12 C-8.875 10.875 -8.875 10.875 -10 9 C-10.38976435 5.88188517 -10.50422245 3.88980433 -8.9375 1.125 C-5.85928089 -0.66235303 -3.47093932 -0.43386742 0 0 Z " fill="#F6F6F2" transform="translate(626,194)"/>
<path d="M0 0 C-0.66 0 -1.32 0 -2 0 C-1.24001203 3.0729949 -1.24001203 3.0729949 1 4.875 C3.27060644 7.28751935 3.64008575 8.76077175 4 12 C3.38125 11.38125 2.7625 10.7625 2.125 10.125 C-2.04476378 7.28956063 -6.07595927 6.72665455 -11 6 C-11 6.66 -11 7.32 -11 8 C-12 9 -13 10 -14 11 C-14.7734375 12.3303125 -14.7734375 12.3303125 -15.5625 13.6875 C-16.2740625 14.8321875 -16.2740625 14.8321875 -17 16 C-17.66 16 -18.32 16 -19 16 C-17.3974545 8.87757558 -12.82626974 3.82876277 -6.8125 -0.0625 C-3.94351088 -1.01882971 -2.74884931 -1.16297471 0 0 Z " fill="#1D5E90" transform="translate(625,186)"/>
<path d="M0 0 C13.86 0 27.72 0 42 0 C42 0.33 42 0.66 42 1 C41.24074219 1.04898438 40.48148438 1.09796875 39.69921875 1.1484375 C38.20841797 1.26058594 38.20841797 1.26058594 36.6875 1.375 C35.20830078 1.47941406 35.20830078 1.47941406 33.69921875 1.5859375 C30.78471567 1.83865472 30.78471567 1.83865472 28 4 C25.45629883 4.22705078 25.45629883 4.22705078 22.45703125 4.1953125 C20.84731445 4.18564453 20.84731445 4.18564453 19.20507812 4.17578125 C17.52575195 4.15064453 17.52575195 4.15064453 15.8125 4.125 C14.68134766 4.11597656 13.55019531 4.10695312 12.38476562 4.09765625 C9.58963172 4.07406862 6.79492155 4.041153 4 4 C4 3.34 4 2.68 4 2 C2.68 1.34 1.36 0.68 0 0 Z " fill="#F0ECE5" transform="translate(620,250)"/>
<path d="M0 0 C11.55 0 23.1 0 35 0 C35 0.33 35 0.66 35 1 C34.34515625 1.02505615 33.6903125 1.0501123 33.015625 1.07592773 C30.01026764 1.19292655 27.00514515 1.31517635 24 1.4375 C22.97003906 1.47681641 21.94007813 1.51613281 20.87890625 1.55664062 C16.36386376 1.74356914 11.91349788 1.95925271 7.4375 2.59765625 C4 3 4 3 1 2 C1.33 2.66 1.66 3.32 2 4 C18.335 4.495 18.335 4.495 35 5 C35 5.33 35 5.66 35 6 C30.17619198 6.0246519 25.35242033 6.04283693 20.52856445 6.05493164 C18.88630536 6.05997174 17.24405077 6.06680378 15.60180664 6.07543945 C13.24624521 6.08751926 10.89074291 6.09323139 8.53515625 6.09765625 C7.79660904 6.10281754 7.05806183 6.10797882 6.2971344 6.11329651 C4.53101912 6.1134925 2.76502854 6.06194719 1 6 C0.67 5.67 0.34 5.34 0 5 C0 3.35 0 1.7 0 0 Z " fill="#FBF1D7" transform="translate(641,287)"/>
<path d="M0 0 C1 3 1 3 0.875 6.8125 C0.82670484 12.07667224 2.50692966 15.41910199 6.125 19.25 C8.9015824 20.94009363 10.3261575 21.31573103 13.4375 21.8125 C18.19936558 22.66453949 20.15378528 24.75434902 23.00390625 28.5390625 C23.33261719 29.02117187 23.66132812 29.50328125 24 30 C21.53199953 28.84826645 19.95216435 27.95216435 18 26 C16.65404953 25.74389949 15.29727521 25.54287348 13.9375 25.375 C7.8630659 24.19166868 4.22255582 20.29243263 0 16 C-1.32 17.98 -2.64 19.96 -4 22 C-4 19 -4 19 -3 17 C-2.93049459 15.45976004 -2.91547643 13.91665012 -2.9375 12.375 C-2.94652344 11.55773437 -2.95554687 10.74046875 -2.96484375 9.8984375 C-2.97644531 9.27195312 -2.98804688 8.64546875 -3 8 C-2.67 8 -2.34 8 -2 8 C-1.34 5.36 -0.68 2.72 0 0 Z " fill="#129BB2" transform="translate(735,382)"/>
<path d="M0 0 C0.33 0.66 0.66 1.32 1 2 C3.02463255 2.65213292 3.02463255 2.65213292 5 3 C5 4.98 5 6.96 5 9 C4.34 9 3.68 9 3 9 C3 9.66 3 10.32 3 11 C-2.625 11.25 -2.625 11.25 -6 9 C-4.47291037 5.56404834 -2.40072955 2.88087546 0 0 Z " fill="#159FB3" transform="translate(766,396)"/>
<path d="M0 0 C0.33 0.66 0.66 1.32 1 2 C0.00390625 4.1640625 0.00390625 4.1640625 -1.4375 6.625 C-1.91058594 7.44226563 -2.38367188 8.25953125 -2.87109375 9.1015625 C-3.24363281 9.72804688 -3.61617187 10.35453125 -4 11 C-3.01 11 -2.02 11 -1 11 C-0.01 11 0.98 11 2 11 C0.58972554 12.46451579 -0.82848796 13.9213893 -2.25 15.375 C-3.03890625 16.18710937 -3.8278125 16.99921875 -4.640625 17.8359375 C-6.73379455 19.75583143 -8.40397179 20.91633685 -11 22 C-11.33 21.34 -11.66 20.68 -12 20 C-11.01196289 17.93701172 -11.01196289 17.93701172 -9.47265625 15.4296875 C-8.92802734 14.53378906 -8.38339844 13.63789063 -7.82226562 12.71484375 C-6.95118164 11.30912109 -6.95118164 11.30912109 -6.0625 9.875 C-5.48564453 8.93011719 -4.90878906 7.98523438 -4.31445312 7.01171875 C-2.88340205 4.66999881 -1.44501781 2.33311811 0 0 Z " fill="#1883A7" transform="translate(647,433)"/>
<path d="M0 0 C9.57 0 19.14 0 29 0 C29 0.33 29 0.66 29 1 C27.35 1.33 25.7 1.66 24 2 C24 2.33 24 2.66 24 3 C26.31 3.33 28.62 3.66 31 4 C31 4.33 31 4.66 31 5 C26.71 5 22.42 5 18 5 C17.67 4.34 17.34 3.68 17 3 C14.12817413 2.52381188 11.32879853 2.15832403 8.4375 1.875 C7.22803711 1.74544922 7.22803711 1.74544922 5.99414062 1.61328125 C3.99695936 1.40056372 1.99857263 1.19922145 0 1 C0 0.67 0 0.34 0 0 Z " fill="#AEE2EA" transform="translate(733,350)"/>
<path d="M0 0 C5.63929704 1.63364252 10.63737363 4.22261538 15.8125 6.9375 C17.11864258 7.60168945 17.11864258 7.60168945 18.45117188 8.27929688 C19.27810547 8.71177734 20.10503906 9.14425781 20.95703125 9.58984375 C21.70960205 9.98034912 22.46217285 10.37085449 23.23754883 10.77319336 C25 12 25 12 26 15 C21.15340923 14.40895235 17.39251833 13.02055843 13 11 C13 10.01 13 9.02 13 8 C8.71 5.69 4.42 3.38 0 1 C0 0.67 0 0.34 0 0 Z " fill="#1883A7" transform="translate(562,355)"/>
<path d="M0 0 C0.33 0.99 0.66 1.98 1 3 C1.99 3.33 2.98 3.66 4 4 C2.40423801 5.50893816 0.79810089 7.00691076 -0.8125 8.5 C-1.70582031 9.3353125 -2.59914063 10.170625 -3.51953125 11.03125 C-6 13 -6 13 -9 13 C-8.51286902 8.58489226 -7.14946803 6.69553355 -3.9375 3.6875 C-3.20402344 2.99011719 -2.47054687 2.29273438 -1.71484375 1.57421875 C-1.14894531 1.05472656 -0.58304688 0.53523438 0 0 Z " fill="#1D95B1" transform="translate(784,285)"/>
<path d="M0 0 C2.82080379 0.61262631 5.13808856 1.47154809 7.671875 2.84765625 C8.33574219 3.20537109 8.99960937 3.56308594 9.68359375 3.93164062 C10.36550781 4.30482422 11.04742188 4.67800781 11.75 5.0625 C12.44738281 5.43955078 13.14476562 5.81660156 13.86328125 6.20507812 C15.57768302 7.13273388 17.28913661 8.06583454 19 9 C17.25 10.125 17.25 10.125 15 11 C13.140625 10.2890625 13.140625 10.2890625 11 9 C8.92224305 8.11183964 6.83848374 7.23763459 4.75 6.375 C3.67234375 5.92898438 2.5946875 5.48296875 1.484375 5.0234375 C0.66453125 4.68570312 -0.1553125 4.34796875 -1 4 C-0.67 2.68 -0.34 1.36 0 0 Z " fill="#3296B3" transform="translate(559,355)"/>
<path d="M0 0 C3.96 0 7.92 0 12 0 C11.01 0.33 10.02 0.66 9 1 C9.33 2.65 9.66 4.3 10 6 C8.24929483 5.88529863 6.49942464 5.75780972 4.75 5.625 C3.77546875 5.55539062 2.8009375 5.48578125 1.796875 5.4140625 C-0.89633189 5.01534751 -2.66963279 4.36492937 -5 3 C-3.35 3 -1.7 3 0 3 C0 2.01 0 1.02 0 0 Z " fill="#25A5BA" transform="translate(853,380)"/>
<path d="M0 0 C0.33 0.66 0.66 1.32 1 2 C2.98 1.67 4.96 1.34 7 1 C7 4 7 4 5 7 C4.34 7 3.68 7 3 7 C2.67 6.01 2.34 5.02 2 4 C-0.0343459 5.41519715 -0.90410393 6.54982123 -1.421875 8.98046875 C-1.66273952 10.98176954 -1.83532741 12.9909944 -2 15 C-2.66 15 -3.32 15 -4 15 C-4.45356243 8.53673535 -3.59378942 5.39068413 0 0 Z " fill="#E8F3F0" transform="translate(739,378)"/>
<path d="M0 0 C0.66 0.33 1.32 0.66 2 1 C-8.44921875 11.44921875 -8.44921875 11.44921875 -10.2878418 13.28588867 C-11.7799207 14.77966964 -13.26552815 16.27990915 -14.75 17.78125 C-17.38071389 20.3754262 -20.13649806 22.66924261 -23 25 C-21.43717018 21.23396131 -19.0936525 18.86360849 -16.2109375 16.015625 C-15.74765045 15.55516785 -15.2843634 15.09471069 -14.80703735 14.62030029 C-13.33434102 13.15874922 -11.85482597 11.70432832 -10.375 10.25 C-9.37193678 9.25697389 -8.36932743 8.26348911 -7.3671875 7.26953125 C-4.91669165 4.84102059 -2.4600333 2.41885325 0 0 Z " fill="#FCFDFA" transform="translate(661,366)"/>
<path d="M0 0 C-0.66 1.32 -1.32 2.64 -2 4 C-4.97 3.505 -4.97 3.505 -8 3 C-8 3.66 -8 4.32 -8 5 C-9 6 -10 7 -11 8 C-11.7734375 9.3303125 -11.7734375 9.3303125 -12.5625 10.6875 C-13.2740625 11.8321875 -13.2740625 11.8321875 -14 13 C-14.66 13 -15.32 13 -16 13 C-14.3491762 7.08454804 -12.27075762 3.41922351 -7 0.125 C-3.98181428 -1.00681965 -2.90707256 -1.22991531 0 0 Z " fill="#2E6F9B" transform="translate(622,189)"/>
<path d="M0 0 C2.97 0.33 5.94 0.66 9 1 C8.34 2.65 7.68 4.3 7 6 C2.71 5.67 -1.58 5.34 -6 5 C-5.67 4.01 -5.34 3.02 -5 2 C-3.35 1.67 -1.7 1.34 0 1 C0 0.67 0 0.34 0 0 Z " fill="#95D9E2" transform="translate(761,349)"/>
<path d="M0 0 C1 4 1 4 -0.625 7.5 C-2.62497241 10.71102836 -4.74042483 12.99410759 -8 15 C-8.99 14.67 -9.98 14.34 -11 14 C-10.34 13.67 -9.68 13.34 -9 13 C-9.061875 11.88625 -9.12375 10.7725 -9.1875 9.625 C-9.125625 8.42875 -9.06375 7.2325 -9 6 C-8.01 5.34 -7.02 4.68 -6 4 C-5.67 5.65 -5.34 7.3 -5 9 C-4.34 9 -3.68 9 -3 9 C-2.01 6.03 -1.02 3.06 0 0 Z " fill="#F0B721" transform="translate(674,306)"/>
<path d="M0 0 C0.33 0.66 0.66 1.32 1 2 C1.66 2 2.32 2 3 2 C3 2.66 3 3.32 3 4 C4.175625 4.226875 5.35125 4.45375 6.5625 4.6875 C13.54313956 6.22010836 20.25376175 8.671259 27 11 C23.14148697 12.4672642 20.59823556 11.48716095 16.7734375 10.19921875 C14.9790625 9.59883789 14.9790625 9.59883789 13.1484375 8.98632812 C11.90320313 8.55771484 10.65796875 8.12910156 9.375 7.6875 C8.10965115 7.26544723 6.84402857 6.84421415 5.578125 6.42382812 C-3.72616709 3.27383291 -3.72616709 3.27383291 -6 1 C-3.03 1.495 -3.03 1.495 0 2 C0 1.34 0 0.68 0 0 Z " fill="#1180A5" transform="translate(545,352)"/>
<path d="M0 0 C0.66 0.66 1.32 1.32 2 2 C4.32275177 2.40047444 6.65739357 2.7397104 9 3 C9 3.33 9 3.66 9 4 C2.07 4 -4.86 4 -12 4 C-8.8256233 -0.76156504 -5.40859919 -0.2950145 0 0 Z " fill="#94D8E2" transform="translate(750,352)"/>
<path d="M0 0 C6.11090483 -0.09945415 11.97403427 -0.0712828 18 1 C15.48177725 3.42472438 14.32466794 3.99254989 10.765625 4.07421875 C9.60546875 3.94660156 8.4453125 3.81898438 7.25 3.6875 C6.07953125 3.56761719 4.9090625 3.44773437 3.703125 3.32421875 C2.81109375 3.21722656 1.9190625 3.11023438 1 3 C0.67 2.01 0.34 1.02 0 0 Z " fill="#2EA7BA" transform="translate(833,379)"/>
<path d="M0 0 C0.33 0 0.66 0 1 0 C0.96519531 1.24716797 0.96519531 1.24716797 0.9296875 2.51953125 C0.91164063 3.60621094 0.89359375 4.69289062 0.875 5.8125 C0.85179687 6.89144531 0.82859375 7.97039062 0.8046875 9.08203125 C0.76976283 12.19402868 0.76976283 12.19402868 3 15 C2.625 17.6875 2.625 17.6875 2 20 C1.34 19.01 0.68 18.02 0 17 C-0.99 19.475 -0.99 19.475 -2 22 C-2.33 22 -2.66 22 -3 22 C-3.16335585 16.76580643 -2.60552037 12.13693808 -1.5 7.0625 C-1.35691406 6.37865234 -1.21382812 5.69480469 -1.06640625 4.99023438 C-0.71716229 3.32550486 -0.35947054 1.66255125 0 0 Z " fill="#199DB5" transform="translate(742,221)"/>
<path d="M0 0 C1.13115234 0.07831055 1.13115234 0.07831055 2.28515625 0.15820312 C4.1487937 0.28795004 6.01194996 0.42457488 7.875 0.5625 C7.875 0.8925 7.875 1.2225 7.875 1.5625 C2.925 1.5625 -2.025 1.5625 -7.125 1.5625 C-6.795 3.2125 -6.465 4.8625 -6.125 6.5625 C-8.105 6.8925 -10.085 7.2225 -12.125 7.5625 C-10.805 5.5825 -9.485 3.6025 -8.125 1.5625 C-8.785 1.2325 -9.445 0.9025 -10.125 0.5625 C-6.91158631 -1.04420684 -3.49541032 -0.26260855 0 0 Z M-6.125 2.5625 C-5.135 3.0575 -5.135 3.0575 -4.125 3.5625 C-5.115 4.0575 -5.115 4.0575 -6.125 4.5625 C-6.125 3.9025 -6.125 3.2425 -6.125 2.5625 Z " fill="#0D9BB1" transform="translate(779.125,404.4375)"/>
<path d="M0 0 C1.32 0.66 2.64 1.32 4 2 C3.125 5.875 3.125 5.875 2 7 C-5.25650558 7.59479554 -5.25650558 7.59479554 -8.5 5 C-8.995 4.34 -9.49 3.68 -10 3 C-7.03 3.99 -4.06 4.98 -1 6 C-1.33 5.01 -1.66 4.02 -2 3 C-1.01 2.67 -0.02 2.34 1 2 C0.67 1.34 0.34 0.68 0 0 Z " fill="#149EB4" transform="translate(722,392)"/>
<path d="M0 0 C0.33 0.66 0.66 1.32 1 2 C-0.32 2.33 -1.64 2.66 -3 3 C-2.67 3.66 -2.34 4.32 -2 5 C-0.02 4.34 1.96 3.68 4 3 C1.88229834 5.32947183 -0.03335588 6.88750845 -3 8 C-3.99 7.67 -4.98 7.34 -6 7 C-6 6.34 -6 5.68 -6 5 C-7.98 5.33 -9.96 5.66 -12 6 C-9.71540242 3.71540242 -7.87462656 3.02870252 -4.875 1.875 C-3.96492187 1.52179688 -3.05484375 1.16859375 -2.1171875 0.8046875 C-1.06917969 0.40636719 -1.06917969 0.40636719 0 0 Z " fill="#B0E3EB" transform="translate(791,341)"/>
<path d="M0 0 C1.32 0.33 2.64 0.66 4 1 C4 1.66 4 2.32 4 3 C3.01 3 2.02 3 1 3 C0.731875 3.94875 0.46375 4.8975 0.1875 5.875 C-1 9 -1 9 -4 11 C-4.8125 8.875 -4.8125 8.875 -5 6 C-3.55576519 3.69892439 -1.89127865 1.98353614 0 0 Z " fill="#31A1B9" transform="translate(793,277)"/>
<path d="M0 0 C-3.8038467 2.30232826 -7.93802837 2.87840421 -12.25 3.625 C-12.99507812 3.7590625 -13.74015625 3.893125 -14.5078125 4.03125 C-16.337563 4.35966676 -18.16865754 4.6805798 -20 5 C-20 3.68 -20 2.36 -20 1 C-19.01 1.33 -18.02 1.66 -17 2 C-14.44451195 1.68170603 -14.44451195 1.68170603 -11.6875 1.0625 C-7.71379882 0.27724605 -4.0688255 -0.21993651 0 0 Z " fill="#159DB4" transform="translate(842,322)"/>
<path d="M0 0 C0.33 1.32 0.66 2.64 1 4 C-2.4019487 6.09350689 -5.05272412 6.17942163 -9 6 C-8 3 -8 3 -6.15234375 2.05078125 C-5.42144531 1.80714844 -4.69054687 1.56351562 -3.9375 1.3125 C-3.20402344 1.06113281 -2.47054687 0.80976563 -1.71484375 0.55078125 C-0.86599609 0.27814453 -0.86599609 0.27814453 0 0 Z " fill="#98D9E2" transform="translate(785,345)"/>
<path d="M0 0 C2.96404505 2.80804268 5.44499019 5.18315774 7 9 C6.01 9.33 5.02 9.66 4 10 C1.2027092 7.93243723 0.97307727 6.85559629 0.3125 3.3125 C0.209375 2.219375 0.10625 1.12625 0 0 Z " fill="#2B95B2" transform="translate(741,497)"/>
<path d="M0 0 C0 3.58912412 -0.66436554 4.10857029 -3 6.6875 C-3.556875 7.31011719 -4.11375 7.93273437 -4.6875 8.57421875 C-5.120625 9.04472656 -5.55375 9.51523437 -6 10 C-6.66 9.34 -7.32 8.68 -8 8 C-5.36 5.36 -2.72 2.72 0 0 Z " fill="#EDEEEC" transform="translate(598,426)"/>
<path d="M0 0 C0.66 0.33 1.32 0.66 2 1 C2 2.98 2 4.96 2 7 C-0.31 7 -2.62 7 -5 7 C-5.33 6.34 -5.66 5.68 -6 5 C-4.02 3.35 -2.04 1.7 0 0 Z " fill="#29ACBC" transform="translate(766,399)"/>
<path d="M0 0 C0.99 0.33 1.98 0.66 3 1 C-1.29 4.63 -5.58 8.26 -10 12 C-10 9 -10 9 -7.8125 6.73828125 C-6.884375 5.93777344 -5.95625 5.13726563 -5 4.3125 C-4.071875 3.50425781 -3.14375 2.69601562 -2.1875 1.86328125 C-1.1046875 0.94095703 -1.1046875 0.94095703 0 0 Z " fill="#F0F2F2" transform="translate(265,667)"/>
<path d="M0 0 C2.31 0.66 4.62 1.32 7 2 C7.33 3.65 7.66 5.3 8 7 C2.35087719 5.52631579 2.35087719 5.52631579 0.625 2.9375 C0 1 0 1 0 0 Z " fill="#23ABBC" transform="translate(720,378)"/>
<path d="M0 0 C-3.48216283 2.05137315 -6.77275657 2.56818592 -10.75 3.125 C-11.92046875 3.29257812 -13.0909375 3.46015625 -14.296875 3.6328125 C-15.18890625 3.75398438 -16.0809375 3.87515625 -17 4 C-17 3.01 -17 2.02 -17 1 C-12.40884929 -1.29557535 -5.15334812 0 0 0 Z " fill="#33ADBF" transform="translate(840,321)"/>
<path d="M0 0 C0.66 1.32 1.32 2.64 2 4 C-0.97 6.475 -0.97 6.475 -4 9 C-4.66 8.34 -5.32 7.68 -6 7 C-4.02 4.69 -2.04 2.38 0 0 Z " fill="#2D90AF" transform="translate(641,446)"/>
<path d="M0 0 C-1.21065165 3.63195496 -2.53691126 4.42896192 -5.5625 6.6875 C-6.38878906 7.31011719 -7.21507812 7.93273437 -8.06640625 8.57421875 C-8.70449219 9.04472656 -9.34257812 9.51523437 -10 10 C-10.66 9.67 -11.32 9.34 -12 9 C-11.0925 8.2575 -10.185 7.515 -9.25 6.75 C-7.2904194 5.12780002 -5.53053664 3.51749599 -3.75 1.6875 C-2 0 -2 0 0 0 Z " fill="#EEF1F2" transform="translate(445,531)"/>
<path d="M0 0 C0.66 0.33 1.32 0.66 2 1 C-0.31 3.64 -2.62 6.28 -5 9 C-5.99 8.67 -6.98 8.34 -8 8 C-5.36 5.36 -2.72 2.72 0 0 Z " fill="#E4E9E8" transform="translate(255,774)"/>
<path d="M0 0 C0.66 0.99 1.32 1.98 2 3 C1.3503125 3.5878125 1.3503125 3.5878125 0.6875 4.1875 C-1.14560261 6.02238902 -1.14560261 6.02238902 -2.5625 8.6875 C-3.2740625 9.8321875 -3.2740625 9.8321875 -4 11 C-4.66 11 -5.32 11 -6 11 C-4.74194623 6.49197399 -3.09592835 3.5087188 0 0 Z " fill="#1A5A8D" transform="translate(612,191)"/>
<path d="M0 0 C0.66 0.33 1.32 0.66 2 1 C-0.20841794 4.37074318 -2.39325122 6.19662561 -6 8 C-6.99 8 -7.98 8 -9 8 C-6.03 5.36 -3.06 2.72 0 0 Z " fill="#0F2F52" transform="translate(507,479)"/>
<path d="M0 0 C-0.75 1.9375 -0.75 1.9375 -2 4 C-4.125 4.75 -4.125 4.75 -6 5 C-6.99 3.68 -7.98 2.36 -9 1 C-2.25 0 -2.25 0 0 0 Z " fill="#E4F3F2" transform="translate(771,406)"/>
<path d="M0 0 C0 1.98 0 3.96 0 6 C-1.98 6.99 -1.98 6.99 -4 8 C-4 7.01 -4 6.02 -4 5 C-4.66 4.67 -5.32 4.34 -6 4 C-2.25 0 -2.25 0 0 0 Z " fill="#A9E2EA" transform="translate(799,336)"/>
<path d="M0 0 C0.33 0.66 0.66 1.32 1 2 C1.66 2 2.32 2 3 2 C3 2.66 3 3.32 3 4 C3.99 4 4.98 4 6 4 C6 4.66 6 5.32 6 6 C4.37276701 5.54965877 2.74826336 5.08944646 1.125 4.625 C0.22007812 4.36976563 -0.68484375 4.11453125 -1.6171875 3.8515625 C-4 3 -4 3 -6 1 C-3.03 1.495 -3.03 1.495 0 2 C0 1.34 0 0.68 0 0 Z " fill="#1C86AA" transform="translate(545,352)"/>
<path d="M0 0 C0.66 0.33 1.32 0.66 2 1 C-2.82142857 7.29464286 -2.82142857 7.29464286 -7 8 C-6.02133662 6.85373678 -5.04205413 5.70800212 -4.0625 4.5625 C-3.51722656 3.92441406 -2.97195313 3.28632812 -2.41015625 2.62890625 C-1.63204305 1.73008851 -0.84063472 0.84063472 0 0 Z " fill="#EBEEEE" transform="translate(374,641)"/>
<path d="M0 0 C0.66 0.33 1.32 0.66 2 1 C-1.12621626 4.39417765 -3.56541027 6.6062718 -8 8 C-5.58443874 4.80800833 -3.31996462 2.25283313 0 0 Z " fill="#0C2D4F" transform="translate(616,387)"/>
<path d="M0 0 C1.32 0.66 2.64 1.32 4 2 C4 2.66 4 3.32 4 4 C5.65 3.67 7.3 3.34 9 3 C8.34 3.66 7.68 4.32 7 5 C4.27130593 4.96712417 1.7033382 4.43602229 -1 4 C-0.67 2.68 -0.34 1.36 0 0 Z " fill="#93D8E1" transform="translate(721,347)"/>
<path d="M0 0 C0.66 0.33 1.32 0.66 2 1 C1.01 2.32 0.02 3.64 -1 5 C-0.34 5.33 0.32 5.66 1 6 C0.67 6.99 0.34 7.98 0 9 C-1.32 8.34 -2.64 7.68 -4 7 C-1.125 1.125 -1.125 1.125 0 0 Z " fill="#14A1B6" transform="translate(703,323)"/>
<path d="M0 0 C-1.46436285 4.63714903 -1.46436285 4.63714903 -3.9375 6.3125 C-6 7 -6 7 -9 7 C-7.88121617 5.82737096 -6.75476949 4.66204862 -5.625 3.5 C-4.68527344 2.52546875 -4.68527344 2.52546875 -3.7265625 1.53125 C-2 0 -2 0 0 0 Z " fill="#F0F3F2" transform="translate(328,705)"/>
<path d="M0 0 C3.465 1.98 3.465 1.98 7 4 C5.02 4.99 5.02 4.99 3 6 C1.68 4.35 0.36 2.7 -1 1 C-0.67 0.67 -0.34 0.34 0 0 Z " fill="#319EB7" transform="translate(788,465)"/>
<path d="M0 0 C0.99 0.99 1.98 1.98 3 3 C2.34 4.65 1.68 6.3 1 8 C0.01 7.67 -0.98 7.34 -2 7 C-1.34 4.69 -0.68 2.38 0 0 Z " fill="#F0F3F2" transform="translate(675,237)"/>
<path d="M0 0 C1.32 0.33 2.64 0.66 4 1 C4.33 2.98 4.66 4.96 5 7 C4.01 7.495 4.01 7.495 3 8 C0 2.25 0 2.25 0 0 Z " fill="#3397B3" transform="translate(734,487)"/>
<path d="M0 0 C2.625 1.3125 2.625 1.3125 5 3 C5 3.66 5 4.32 5 5 C2.03 4.505 2.03 4.505 -1 4 C-1.33 3.01 -1.66 2.02 -2 1 C-1.34 0.67 -0.68 0.34 0 0 Z " fill="#298DAF" transform="translate(583,365)"/>
<path d="M0 0 C1.98 0.66 3.96 1.32 6 2 C5.67 2.99 5.34 3.98 5 5 C3.125 4.6875 3.125 4.6875 1 4 C0.34 3.01 -0.32 2.02 -1 1 C-0.67 0.67 -0.34 0.34 0 0 Z " fill="#B1E4ED" transform="translate(704,341)"/>
<path d="M0 0 C0.33 0.99 0.66 1.98 1 3 C-1.31 4.98 -3.62 6.96 -6 9 C-6.66 8.67 -7.32 8.34 -8 8 C-5.36 5.36 -2.72 2.72 0 0 Z " fill="#138EAC" transform="translate(807,260)"/>
<path d="M0 0 C-1.39332574 3.36720387 -2.9789286 4.9859524 -6 7 C-6.66 6.67 -7.32 6.34 -8 6 C-7.0479279 4.99403703 -6.08812654 3.99538437 -5.125 3 C-4.59132813 2.443125 -4.05765625 1.88625 -3.5078125 1.3125 C-2 0 -2 0 0 0 Z M-10 7 C-8 8 -8 8 -8 8 Z " fill="#F2F7F4" transform="translate(822,260)"/>
<path d="M0 0 C0.53625 0.2475 1.0725 0.495 1.625 0.75 C0.84125 0.8325 0.0575 0.915 -0.75 1 C-3.52249104 1.47806339 -3.52249104 1.47806339 -4.6875 3.8125 C-5.0278125 4.7715625 -5.0278125 4.7715625 -5.375 5.75 C-6.365 5.09 -7.355 4.43 -8.375 3.75 C-2.95961538 -0.31153846 -2.95961538 -0.31153846 0 0 Z " fill="#EEB41A" transform="translate(619.375,257.25)"/>
<path d="M0 0 C1.9451 2.91765 2.45276317 4.62537285 3 8 C2.01 8.33 1.02 8.66 0 9 C-0.84454356 5.62182575 -1.10844919 3.32534757 0 0 Z " fill="#39ACBF" transform="translate(741,235)"/>
<path d="M0 0 C2 1 2 1 3 3 C2.67 3.66 2.34 4.32 2 5 C0.35 4.67 -1.3 4.34 -3 4 C-2.01 2.68 -1.02 1.36 0 0 Z " fill="#0E3356" transform="translate(540,451)"/>
<path d="M0 0 C2.35448165 2.55068845 2.98327924 3.71017358 3.1875 7.25 C3.125625 8.1575 3.06375 9.065 3 10 C1.5 8.9375 1.5 8.9375 0 7 C-0.1875 3.3125 -0.1875 3.3125 0 0 Z " fill="#109BB2" transform="translate(743,386)"/>
<path d="M0 0 C1.32 0.99 2.64 1.98 4 3 C3.67 3.99 3.34 4.98 3 6 C1.35 4.35 -0.3 2.7 -2 1 C-1.34 0.67 -0.68 0.34 0 0 Z " fill="#329BB6" transform="translate(558,305)"/>
</svg>
